<mxfile host="65bd71144e">
    <diagram id="r8jrAEpcWnGwujQfcr-e" name="Page-1">
        <mxGraphModel dx="371" dy="472" grid="1" gridSize="10" guides="1" tooltips="1" connect="1" arrows="1" fold="1" page="1" pageScale="1" pageWidth="850" pageHeight="1100" math="0" shadow="0">
            <root>
                <mxCell id="0"/>
                <mxCell id="1" parent="0"/>
                <mxCell id="-0z9shVKl5nUomZbdwEb-21" value="" style="rounded=0;whiteSpace=wrap;html=1;" parent="1" vertex="1">
                    <mxGeometry x="310" y="180" width="350" height="280" as="geometry"/>
                </mxCell>
                <mxCell id="-0z9shVKl5nUomZbdwEb-18" value="&lt;span&gt;&lt;font style=&quot;font-size: 16px&quot;&gt;Sender's Digital Signature&lt;/font&gt;&lt;/span&gt;" style="rounded=0;whiteSpace=wrap;html=1;" parent="1" vertex="1">
                    <mxGeometry x="310" y="400" width="350" height="60" as="geometry"/>
                </mxCell>
                <mxCell id="-0z9shVKl5nUomZbdwEb-19" value="&lt;font style=&quot;font-size: 30px&quot;&gt;DATA&lt;/font&gt;" style="rounded=0;whiteSpace=wrap;html=1;" parent="1" vertex="1">
                    <mxGeometry x="310" y="270" width="350" height="130" as="geometry"/>
                </mxCell>
                <mxCell id="-0z9shVKl5nUomZbdwEb-22" value="&lt;font style=&quot;font-size: 22px;&quot;&gt;Transaction&lt;/font&gt;" style="text;html=1;strokeColor=none;fillColor=none;align=center;verticalAlign=middle;whiteSpace=wrap;rounded=0;fontSize=22;" parent="1" vertex="1">
                    <mxGeometry x="415" y="183" width="150" height="30" as="geometry"/>
                </mxCell>
                <mxCell id="8-Gma42HzHuSdxEGjb_5-3" value="Nonce" style="rounded=0;whiteSpace=wrap;html=1;fontSize=18;" parent="1" vertex="1">
                    <mxGeometry x="310" y="220" width="120" height="50" as="geometry"/>
                </mxCell>
                <mxCell id="8-Gma42HzHuSdxEGjb_5-4" value="Sender&lt;br style=&quot;font-size: 18px;&quot;&gt;Wallet" style="rounded=0;whiteSpace=wrap;html=1;fontSize=18;" parent="1" vertex="1">
                    <mxGeometry x="430" y="220" width="120" height="50" as="geometry"/>
                </mxCell>
                <mxCell id="8-Gma42HzHuSdxEGjb_5-5" value="Receiver&lt;br style=&quot;font-size: 18px;&quot;&gt;Wallet" style="rounded=0;whiteSpace=wrap;html=1;fontSize=18;" parent="1" vertex="1">
                    <mxGeometry x="550" y="220" width="110" height="50" as="geometry"/>
                </mxCell>
                <mxCell id="2" value="Type" style="rounded=0;whiteSpace=wrap;html=1;fontSize=18;" vertex="1" parent="1">
                    <mxGeometry x="310" y="270" width="120" height="40" as="geometry"/>
                </mxCell>
            </root>
        </mxGraphModel>
    </diagram>
</mxfile>